<svg width="359" height="191" viewBox="0 0 359 191" fill="none" xmlns="http://www.w3.org/2000/svg">
<g clip-path="url(#clip0_27_386)">
<path d="M52.4032 0H4.59677C2.05805 0 0 2.06638 0 4.61538V7.38462C0 9.93362 2.05805 12 4.59677 12H52.4032C54.942 12 57 9.93362 57 7.38462V4.61538C57 2.06638 54.942 0 52.4032 0Z" fill="white" fill-opacity="0.05"/>
<path d="M89.4688 0H69.5312C67.0287 0 65 2.06638 65 4.61538V7.38462C65 9.93362 67.0287 12 69.5312 12H89.4688C91.9713 12 94 9.93362 94 7.38462V4.61538C94 2.06638 91.9713 0 89.4688 0Z" fill="white" fill-opacity="0.05"/>
<path d="M113.556 0H106.444C103.99 0 102 2.06638 102 4.61538V7.38462C102 9.93362 103.99 12 106.444 12H113.556C116.01 12 118 9.93362 118 7.38462V4.61538C118 2.06638 116.01 0 113.556 0Z" fill="white" fill-opacity="0.05"/>
<path d="M7.38462 21H4.61538C2.06638 21 0 23.0664 0 25.6154V28.3846C0 30.9336 2.06638 33 4.61538 33H7.38462C9.93362 33 12 30.9336 12 28.3846V25.6154C12 23.0664 9.93362 21 7.38462 21Z" fill="white" fill-opacity="0.05"/>
<path d="M71.3279 21H23.6721C21.0918 21 19 23.0664 19 25.6154V28.3846C19 30.9336 21.0918 33 23.6721 33H71.3279C73.9082 33 76 30.9336 76 28.3846V25.6154C76 23.0664 73.9082 21 71.3279 21Z" fill="white" fill-opacity="0.05"/>
<path d="M124.306 21H87.6939C85.1015 21 83 23.0664 83 25.6154V28.3846C83 30.9336 85.1015 33 87.6939 33H124.306C126.898 33 129 30.9336 129 28.3846V25.6154C129 23.0664 126.898 21 124.306 21Z" fill="white" fill-opacity="0.05"/>
<path d="M58.3676 43H4.63235C2.07397 43 0 45.0664 0 47.6154V50.3846C0 52.9336 2.07397 55 4.63235 55H58.3676C60.926 55 63 52.9336 63 50.3846V47.6154C63 45.0664 60.926 43 58.3676 43Z" fill="white" fill-opacity="0.05"/>
<path d="M117.357 43H74.6429C72.0787 43 70 45.0664 70 47.6154V50.3846C70 52.9336 72.0787 55 74.6429 55H117.357C119.921 55 122 52.9336 122 50.3846V47.6154C122 45.0664 119.921 43 117.357 43Z" fill="white" fill-opacity="0.05"/>
<path d="M195.395 43H134.605C132.062 43 130 45.0664 130 47.6154V50.3846C130 52.9336 132.062 55 134.605 55H195.395C197.938 55 200 52.9336 200 50.3846V47.6154C200 45.0664 197.938 43 195.395 43Z" fill="white" fill-opacity="0.05"/>
<path d="M239.375 43H211.625C209.071 43 207 45.0664 207 47.6154V50.3846C207 52.9336 209.071 55 211.625 55H239.375C241.929 55 244 52.9336 244 50.3846V47.6154C244 45.0664 241.929 43 239.375 43Z" fill="white" fill-opacity="0.05"/>
<path d="M293.4 43H256.6C254.059 43 252 45.0664 252 47.6154V50.3846C252 52.9336 254.059 55 256.6 55H293.4C295.941 55 298 52.9336 298 50.3846V47.6154C298 45.0664 295.941 43 293.4 43Z" fill="white" fill-opacity="0.05"/>
<path d="M344.319 43H309.681C307.096 43 305 45.0664 305 47.6154V50.3846C305 52.9336 307.096 55 309.681 55H344.319C346.904 55 349 52.9336 349 50.3846V47.6154C349 45.0664 346.904 43 344.319 43Z" fill="white" fill-opacity="0.05"/>
<path d="M39.4167 64H4.58333C2.05203 64 0 66.0664 0 68.6154V71.3846C0 73.9336 2.05203 76 4.58333 76H39.4167C41.948 76 44 73.9336 44 71.3846V68.6154C44 66.0664 41.948 64 39.4167 64Z" fill="white" fill-opacity="0.05"/>
<path d="M113.417 64H56.5833C54.052 64 52 66.0664 52 68.6154V71.3846C52 73.9336 54.052 76 56.5833 76H113.417C115.948 76 118 73.9336 118 71.3846V68.6154C118 66.0664 115.948 64 113.417 64Z" fill="white" fill-opacity="0.05"/>
<path d="M187.352 64H130.648C128.081 64 126 66.0664 126 68.6154V71.3846C126 73.9336 128.081 76 130.648 76H187.352C189.919 76 192 73.9336 192 71.3846V68.6154C192 66.0664 189.919 64 187.352 64Z" fill="white" fill-opacity="0.05"/>
<path d="M39.4167 170H4.58333C2.05203 170 0 172.066 0 174.615V177.385C0 179.934 2.05203 182 4.58333 182H39.4167C41.948 182 44 179.934 44 177.385V174.615C44 172.066 41.948 170 39.4167 170Z" fill="white" fill-opacity="0.05"/>
<path d="M113.417 170H56.5833C54.052 170 52 172.066 52 174.615V177.385C52 179.934 54.052 182 56.5833 182H113.417C115.948 182 118 179.934 118 177.385V174.615C118 172.066 115.948 170 113.417 170Z" fill="white" fill-opacity="0.05"/>
<path d="M187.352 170H130.648C128.081 170 126 172.066 126 174.615V177.385C126 179.934 128.081 182 130.648 182H187.352C189.919 182 192 179.934 192 177.385V174.615C192 172.066 189.919 170 187.352 170Z" fill="white" fill-opacity="0.05"/>
<path d="M9.33333 85H4.66667C2.08934 85 0 87.0664 0 89.6154V92.3846C0 94.9336 2.08934 97 4.66667 97H9.33333C11.9107 97 14 94.9336 14 92.3846V89.6154C14 87.0664 11.9107 85 9.33333 85Z" fill="white" fill-opacity="0.05"/>
<path d="M89.3797 85H25.6203C23.0686 85 21 87.0664 21 89.6154V92.3846C21 94.9336 23.0686 97 25.6203 97H89.3797C91.9314 97 94 94.9336 94 92.3846V89.6154C94 87.0664 91.9314 85 89.3797 85Z" fill="white" fill-opacity="0.05"/>
<path d="M119.417 85H106.583C104.052 85 102 87.0664 102 89.6154V92.3846C102 94.9336 104.052 97 106.583 97H119.417C121.948 97 124 94.9336 124 92.3846V89.6154C124 87.0664 121.948 85 119.417 85Z" fill="white" fill-opacity="0.05"/>
<path d="M186.312 85H135.688C133.099 85 131 87.0664 131 89.6154V92.3846C131 94.9336 133.099 97 135.688 97H186.312C188.901 97 191 94.9336 191 92.3846V89.6154C191 87.0664 188.901 85 186.312 85Z" fill="white" fill-opacity="0.05"/>
<path d="M233.349 85H202.651C200.082 85 198 87.0664 198 89.6154V92.3846C198 94.9336 200.082 97 202.651 97H233.349C235.918 97 238 94.9336 238 92.3846V89.6154C238 87.0664 235.918 85 233.349 85Z" fill="white" fill-opacity="0.05"/>
<path d="M314.375 85H249.625C247.071 85 245 87.0664 245 89.6154V92.3846C245 94.9336 247.071 97 249.625 97H314.375C316.929 97 319 94.9336 319 92.3846V89.6154C319 87.0664 316.929 85 314.375 85Z" fill="white" fill-opacity="0.05"/>
<path d="M34.3571 106H4.64286C2.07868 106 0 108.066 0 110.615V113.385C0 115.934 2.07868 118 4.64286 118H34.3571C36.9213 118 39 115.934 39 113.385V110.615C39 108.066 36.9213 106 34.3571 106Z" fill="white" fill-opacity="0.05"/>
<path d="M47.3571 128H4.64286C2.07868 128 0 130.066 0 132.615V135.385C0 137.934 2.07868 140 4.64286 140H47.3571C49.9213 140 52 137.934 52 135.385V132.615C52 130.066 49.9213 128 47.3571 128Z" fill="white" fill-opacity="0.05"/>
<path d="M125.329 128H63.6711C61.0913 128 59 130.066 59 132.615V135.385C59 137.934 61.0913 140 63.6711 140H125.329C127.909 140 130 137.934 130 135.385V132.615C130 130.066 127.909 128 125.329 128Z" fill="white" fill-opacity="0.05"/>
<path d="M153.435 128H141.565C139.044 128 137 130.066 137 132.615V135.385C137 137.934 139.044 140 141.565 140H153.435C155.956 140 158 137.934 158 135.385V132.615C158 130.066 155.956 128 153.435 128Z" fill="white" fill-opacity="0.05"/>
<path d="M60.3571 149H4.64286C2.07868 149 0 151.066 0 153.615V156.385C0 158.934 2.07868 161 4.64286 161H60.3571C62.9213 161 65 158.934 65 156.385V153.615C65 151.066 62.9213 149 60.3571 149Z" fill="white" fill-opacity="0.05"/>
<path d="M102.395 149H76.6053C74.0618 149 72 151.066 72 153.615V156.385C72 158.934 74.0618 161 76.6053 161H102.395C104.938 161 107 158.934 107 156.385V153.615C107 151.066 104.938 149 102.395 149Z" fill="white" fill-opacity="0.05"/>
<path d="M169.391 149H119.609C117.064 149 115 151.066 115 153.615V156.385C115 158.934 117.064 161 119.609 161H169.391C171.936 161 174 158.934 174 156.385V153.615C174 151.066 171.936 149 169.391 149Z" fill="white" fill-opacity="0.05"/>
<path d="M206.312 149H185.688C183.099 149 181 151.066 181 153.615V156.385C181 158.934 183.099 161 185.688 161H206.312C208.901 161 211 158.934 211 156.385V153.615C211 151.066 208.901 149 206.312 149Z" fill="white" fill-opacity="0.05"/>
<path d="M247.278 149H222.722C220.114 149 218 151.066 218 153.615V156.385C218 158.934 220.114 161 222.722 161H247.278C249.886 161 252 158.934 252 156.385V153.615C252 151.066 249.886 149 247.278 149Z" fill="white" fill-opacity="0.05"/>
<path d="M316.373 149H263.627C261.072 149 259 151.066 259 153.615V156.385C259 158.934 261.072 161 263.627 161H316.373C318.928 161 321 158.934 321 156.385V153.615C321 151.066 318.928 149 316.373 149Z" fill="white" fill-opacity="0.05"/>
</g>
<defs>
<clipPath id="clip0_27_386">
<rect width="359" height="191" fill="white"/>
</clipPath>
</defs>
</svg>
